# xmcd CD database file
#
# Track frame offsets:
#	150
#	14689
#	39529
#	60530
#	82270
#	104801
#	131017
#	141643
#	161695
#	176471
#
# Disc length: 2721 seconds
#
# Revision: 2
# Processed by: cddbd v1.5.1PL2 Copyright (c) Steve Scherf et al.
# Submitted via: Feurio! 1.65 - http://www.feurio.com
#
DISCID=960a9f0a
DTITLE=Chris Rea - Dancing Down The Stony Road - Disc 1
DYEAR=2002
DGENRE=Blues
TTITLE0=Easy Rider
TTITLE1=Stony Road
TTITLE2=Dancing The Blues Away
TTITLE3=Catfish Girl
TTITLE4=Burning Feet
TTITLE5=Slow Dance
TTITLE6=Segway
TTITLE7=Missisippi
TTITLE8=So Lonely
TTITLE9=Heading For the City
EXTD=
EXTT0=
EXTT1=
EXTT2=
EXTT3=
EXTT4=
EXTT5=
EXTT6=
EXTT7=
EXTT8=
EXTT9=
PLAYORDER=
